<mxfile host="www.draw.io" modified="2019-10-17T08:13:12.328Z" agent="Mozilla/5.0 (Windows NT 10.0; WOW64) AppleWebKit/537.36 (KHTML, like Gecko) Chrome/76.0.3809.100 Safari/537.36" etag="94stmOqXFcW0VPduVKgQ" version="12.1.2" type="github" pages="2">
  <diagram id="S-Y-cIijWGbBw5MpGyOI" name="第 1 页">
    <mxGraphModel dx="1408" dy="780" grid="1" gridSize="10" guides="1" tooltips="1" connect="1" arrows="1" fold="1" page="1" pageScale="1" pageWidth="827" pageHeight="1169" math="0" shadow="0">
      <root>
        <mxCell id="0"/>
        <mxCell id="1" parent="0"/>
        <mxCell id="VoqzpTOpJ4fcfL5l7eML-1" value="" style="ellipse;whiteSpace=wrap;html=1;aspect=fixed;" parent="1" vertex="1">
          <mxGeometry x="390" y="250" width="80" height="80" as="geometry"/>
        </mxCell>
        <mxCell id="VoqzpTOpJ4fcfL5l7eML-2" value="" style="shape=mxgraph.bpmn.shape;html=1;verticalLabelPosition=bottom;labelBackgroundColor=#ffffff;verticalAlign=top;align=center;perimeter=ellipsePerimeter;outlineConnect=0;outline=boundInt;symbol=error;" parent="1" vertex="1">
          <mxGeometry x="180" y="230" width="145" height="100" as="geometry"/>
        </mxCell>
      </root>
    </mxGraphModel>
  </diagram>
  <diagram id="RDrQclXi9Eem2fXttQns" name="第 2 页">
    <mxGraphModel dx="1408" dy="780" grid="1" gridSize="10" guides="1" tooltips="1" connect="1" arrows="1" fold="1" page="1" pageScale="1" pageWidth="827" pageHeight="1169" math="0" shadow="0">
      <root>
        <mxCell id="evmerkXqgqzv9kh8v2qb-0"/>
        <mxCell id="evmerkXqgqzv9kh8v2qb-1" parent="evmerkXqgqzv9kh8v2qb-0"/>
      </root>
    </mxGraphModel>
  </diagram>
</mxfile>
